<svg width="800" height="500" xmlns="http://www.w3.org/2000/svg">
  <rect width="800" height="500" fill="#333333" />
  
  <!-- Title Bar -->
  <rect width="800" height="40" fill="#444444" />
  <text x="20" y="25" font-family="Arial" font-size="14" fill="white">Blender Preferences: Add-ons</text>
  
  <!-- Left Sidebar -->
  <rect x="0" y="40" width="200" height="460" fill="#3c3c3c" />
  <rect x="10" y="200" width="180" height="25" rx="3" fill="#5680c2" />
  <text x="20" y="217" font-family="Arial" font-size="12" fill="white">Add-ons</text>
  
  <text x="20" y="80" font-family="Arial" font-size="12" fill="#aaaaaa">Interface</text>
  <text x="20" y="110" font-family="Arial" font-size="12" fill="#aaaaaa">Theme</text>
  <text x="20" y="140" font-family="Arial" font-size="12" fill="#aaaaaa">Viewport</text>
  <text x="20" y="170" font-family="Arial" font-size="12" fill="#aaaaaa">Lights</text>
  <text x="20" y="230" font-family="Arial" font-size="12" fill="#aaaaaa">Input</text>
  <text x="20" y="260" font-family="Arial" font-size="12" fill="#aaaaaa">Navigation</text>
  
  <!-- Main Content -->
  <rect x="210" y="50" width="580" height="30" rx="3" fill="#2b2b2b" />
  <text x="220" y="70" font-family="Arial" font-size="12" fill="#888888">Search...</text>
  
  <!-- Addon Box -->
  <rect x="210" y="90" width="580" height="60" rx="3" fill="#3c3c3c" />
  <rect x="220" y="110" width="16" height="16" rx="2" fill="#5680c2" />
  <text x="222" y="123" font-family="Arial" font-size="14" fill="white">✓</text>
  <text x="250" y="110" font-family="Arial" font-size="14" font-weight="bold" fill="white">AI: Lightfast MCP</text>
  <text x="250" y="130" font-family="Arial" font-size="12" fill="#dddddd">Control Blender with AI using the Model Context Protocol</text>
  
  <!-- More Addon Boxes (Faded) -->
  <rect x="210" y="160" width="580" height="60" rx="3" fill="#3c3c3c" opacity="0.6" />
  <rect x="220" y="180" width="16" height="16" rx="2" stroke="#888888" stroke-width="1" fill="transparent" />
  <text x="250" y="180" font-family="Arial" font-size="14" font-weight="bold" fill="#dddddd">Add Curve: Extra Objects</text>
  <text x="250" y="200" font-family="Arial" font-size="12" fill="#dddddd">Add multiple extra curve object types</text>
  
  <rect x="210" y="230" width="580" height="60" rx="3" fill="#3c3c3c" opacity="0.6" />
  <rect x="220" y="250" width="16" height="16" rx="2" stroke="#888888" stroke-width="1" fill="transparent" />
  <text x="250" y="250" font-family="Arial" font-size="14" font-weight="bold" fill="#dddddd">Add Mesh: Extra Objects</text>
  <text x="250" y="270" font-family="Arial" font-size="12" fill="#dddddd">Add more mesh object types</text>
</svg> 