<svg width="120" height="17" viewBox="0 0 120 17" fill="none" xmlns="http://www.w3.org/2000/svg">
<path d="M15.346 15.7939H11.5286L20.4485 0.34375H24.2659L15.346 15.7939Z" fill="white"/>
<path d="M0 15.7905V0.347999H3.306V14.8988L1.479 13.0065H10.4183V15.7905H0Z" fill="white"/>
<path d="M30.438 16.1385C28.9445 16.1385 27.6685 15.7978 26.61 15.1163C25.5515 14.4348 24.7323 13.4922 24.1523 12.2887C23.5868 11.0707 23.304 9.6715 23.304 8.091C23.304 6.5395 23.594 5.15475 24.174 3.93675C24.754 2.71875 25.5878 1.76175 26.6753 1.06575C27.7773 0.35525 29.0968 0 30.6338 0C31.9678 0 33.0915 0.22475 34.005 0.674249C34.933 1.10925 35.6725 1.73275 36.2235 2.54475C36.7745 3.35675 37.1588 4.31375 37.3763 5.41575L33.9615 5.568C33.802 4.7125 33.4613 4.03825 32.9393 3.54525C32.4318 3.03775 31.6705 2.784 30.6555 2.784C29.771 2.784 29.0315 3.016 28.437 3.48C27.857 3.944 27.422 4.57475 27.132 5.37225C26.8565 6.16975 26.7188 7.076 26.7188 8.091C26.7188 9.1205 26.8565 10.034 27.132 10.8315C27.422 11.6145 27.857 12.2308 28.437 12.6803C29.0315 13.1298 29.7928 13.3545 30.7208 13.3545C31.4023 13.3545 31.9895 13.2167 32.4825 12.9412C32.99 12.6657 33.3815 12.2888 33.657 11.8103C33.947 11.3318 34.121 10.788 34.179 10.179H30.6555V7.76475H37.4198V15.7905H35.3753L35.2013 12.4845L35.5928 12.6585C35.4477 13.34 35.1287 13.9417 34.6357 14.4637C34.1428 14.9857 33.5338 15.399 32.8088 15.7035C32.0982 15.9935 31.308 16.1385 30.438 16.1385Z" fill="white"/>
<path d="M40.0576 15.7905V0.347999H43.3636V7.67775L41.9064 6.63375H50.6934L49.2144 7.67775V0.347999H52.5204V15.7905H49.2144V8.37375L50.6934 9.41775H41.9064L43.3636 8.37375V15.7905H40.0576Z" fill="white"/>
<path d="M58.3577 15.7905V3.132H53.7467V0.347999H66.3182V3.132H61.6854V15.7905H58.3577Z" fill="white"/>
<path d="M67.7336 15.7905V0.347999H78.3911V3.132H69.2126L71.0396 1.23975V8.3085L69.2126 6.873H77.9996V9.6135H69.2126L71.0396 8.178V15.7905H67.7336Z" fill="white"/>
<path d="M77.816 15.7905L83.384 0.347999H87.299L92.867 15.7905H89.4305L88.2995 12.5063H82.3617L81.2307 15.7905H77.816ZM83.297 9.7875H87.386L85.3415 3.828L83.297 9.7875Z" fill="white"/>
<path d="M100.098 16.1385C98.7643 16.1385 97.6188 15.9138 96.6618 15.4643C95.7048 15.0148 94.9581 14.384 94.4216 13.572C93.8851 12.76 93.5806 11.803 93.5081 10.701L96.8358 10.5487C96.9228 11.1577 97.0968 11.6797 97.3578 12.1147C97.6333 12.5353 97.9958 12.8543 98.4453 13.0718C98.9093 13.2893 99.4748 13.398 100.142 13.398C100.693 13.398 101.157 13.3328 101.534 13.2023C101.925 13.0718 102.223 12.876 102.426 12.615C102.629 12.3395 102.73 12.006 102.73 11.6145C102.73 11.252 102.643 10.9402 102.469 10.6792C102.295 10.4037 101.962 10.1572 101.469 9.93975C100.976 9.70775 100.251 9.483 99.2936 9.2655C97.9741 8.961 96.9083 8.62025 96.0963 8.24325C95.2988 7.86625 94.7188 7.395 94.3563 6.8295C93.9938 6.2495 93.8126 5.5245 93.8126 4.6545C93.8126 3.7265 94.0373 2.9145 94.4868 2.2185C94.9508 1.5225 95.6178 0.978749 96.4878 0.587249C97.3578 0.19575 98.3946 0 99.5981 0C100.874 0 101.954 0.22475 102.839 0.674249C103.723 1.12375 104.412 1.74 104.905 2.523C105.413 3.306 105.717 4.205 105.819 5.22L102.513 5.394C102.469 4.8575 102.324 4.3935 102.078 4.002C101.831 3.596 101.498 3.28425 101.077 3.06675C100.657 2.84925 100.149 2.7405 99.5546 2.7405C98.8006 2.7405 98.2061 2.90725 97.7711 3.24075C97.3506 3.57425 97.1403 4.00925 97.1403 4.54575C97.1403 4.92275 97.2346 5.24175 97.4231 5.50275C97.6261 5.74925 97.9523 5.96675 98.4018 6.15525C98.8658 6.34375 99.5183 6.525 100.359 6.699C101.795 6.989 102.926 7.35875 103.752 7.80825C104.593 8.24325 105.188 8.76525 105.536 9.37425C105.884 9.98325 106.058 10.6792 106.058 11.4622C106.058 12.4192 105.811 13.253 105.318 13.9635C104.84 14.6595 104.151 15.196 103.252 15.573C102.368 15.95 101.316 16.1385 100.098 16.1385Z" fill="white"/>
<path d="M111.161 15.7905V3.132H106.55V0.347999H119.121V3.132H114.489V15.7905H111.161Z" fill="white"/>
</svg>
